<svg xmlns="http://www.w3.org/2000/svg" version="1.1" xmlns:xlink="http://www.w3.org/1999/xlink" xmlns:svgjs="http://svgjs.dev/svgjs" width="1500" height="1500" viewBox="0 0 1500 1500"><rect width="1500" height="1500" fill="#000000"></rect><g transform="matrix(0.6666666666666666,0,0,0.6666666666666666,249.39393939393938,619.481531555863)"><svg viewBox="0 0 396 103" data-background-color="#eae5df" preserveAspectRatio="xMidYMid meet" height="390" width="1500" xmlns="http://www.w3.org/2000/svg" xmlns:xlink="http://www.w3.org/1999/xlink"><g id="tight-bounds" transform="matrix(1,0,0,1,0.2400000000000091,0.2053932682542836)"><svg viewBox="0 0 395.52 102.58921346349143" height="102.58921346349143" width="395.52"><g><svg viewBox="0 0 576.6692398883403 149.5753533291219" height="102.58921346349143" width="395.52"><g transform="matrix(1,0,0,1,181.1492398883403,46.22095524952621)"><svg viewBox="0 0 395.52 57.13344283006948" height="57.13344283006948" width="395.52"><g id="textblocktransform"><svg viewBox="0 0 395.52 57.13344283006948" height="57.13344283006948" width="395.52" id="textblock"><g><svg viewBox="0 0 395.52 57.13344283006948" height="57.13344283006948" width="395.52"><g transform="matrix(1,0,0,1,0,0)"><svg width="395.52" viewBox="1.25 -33.65 237.43 34.3" height="57.13344283006948" data-palette-color="#be959f"><path d="M15.9 0L11.3 0 11.3-33 15.9-33 15.9 0ZM25.95-29L1.25-29 1.25-33 25.95-33 25.95-29ZM36.1 0L31.5 0 31.5-33 36.1-33 36.1-17.25Q38.85-18.2 41.47-19.83 44.1-21.45 46.3-23.53 48.5-25.6 50.15-28.03 51.8-30.45 52.65-33L52.65-33 57.75-33Q56.75-30.1 55.12-27.55 53.5-25 51.42-22.9 49.35-20.8 47.12-19.25 44.9-17.7 42.7-16.75L42.7-16.75 42.7-16.1Q45.15-16.1 47.12-15.45 49.1-14.8 50.72-13.55 52.35-12.3 53.62-10.35 54.9-8.4 55.95-5.75L55.95-5.75 58.05 0 52.9 0 51.55-4.4Q50.4-7.55 48.87-9.58 47.35-11.6 45.02-12.63 42.7-13.65 39.05-13.65L39.05-13.65 36.1-13.65 36.1 0ZM90.24 0L76.94 0 76.94-33 89.04-33Q91.79-33 94.07-32.5 96.34-32 97.94-30.98 99.54-29.95 100.42-28.3 101.29-26.65 101.29-24.35L101.29-24.35Q101.29-22.45 100.54-21 99.79-19.55 98.17-18.65 96.54-17.75 93.89-17.25L93.89-17.25 93.89-16.7Q98.49-16.3 100.57-14.2 102.64-12.1 102.64-8.7L102.64-8.7Q102.64-5.9 101.32-3.98 99.99-2.05 97.27-1.03 94.54 0 90.24 0L90.24 0ZM81.34-15.2L81.34-3.9 90.69-3.9Q94.44-3.9 96.27-5.18 98.09-6.45 98.09-9.1L98.09-9.1Q98.09-12.15 95.57-13.68 93.04-15.2 87.94-15.2L87.94-15.2 81.34-15.2ZM81.34-29.15L81.34-18.6 87.04-18.6Q91.94-18.6 94.34-19.93 96.74-21.25 96.74-23.9L96.74-23.9Q96.74-26.55 94.67-27.85 92.59-29.15 88.39-29.15L88.39-29.15 81.34-29.15ZM123.29 0.65L123.29 0.65Q119.69 0.65 116.97-0.55 114.24-1.75 112.37-4 110.49-6.25 109.54-9.38 108.59-12.5 108.59-16.4L108.59-16.4Q108.59-22.1 110.49-25.93 112.39-29.75 115.74-31.7 119.09-33.65 123.34-33.65L123.34-33.65Q126.69-33.65 129.39-32.5 132.09-31.35 134.02-29.1 135.94-26.85 136.99-23.63 138.04-20.4 138.04-16.3L138.04-16.3Q138.04-12.45 137.06-9.33 136.09-6.2 134.22-3.98 132.34-1.75 129.62-0.55 126.89 0.65 123.29 0.65ZM123.34-3.3L123.34-3.3Q126.54-3.3 128.77-4.83 130.99-6.35 132.17-9.22 133.34-12.1 133.34-16.2L133.34-16.2Q133.34-20.45 132.14-23.43 130.94-26.4 128.69-28 126.44-29.6 123.24-29.6L123.24-29.6Q120.19-29.6 117.94-28.05 115.69-26.5 114.49-23.55 113.29-20.6 113.29-16.3L113.29-16.3Q113.29-13.2 113.97-10.78 114.64-8.35 115.92-6.68 117.19-5 119.07-4.15 120.94-3.3 123.34-3.3ZM158.94 0.65L158.94 0.65Q155.34 0.65 152.61-0.55 149.89-1.75 148.01-4 146.14-6.25 145.19-9.38 144.24-12.5 144.24-16.4L144.24-16.4Q144.24-22.1 146.14-25.93 148.04-29.75 151.39-31.7 154.74-33.65 158.99-33.65L158.99-33.65Q162.34-33.65 165.04-32.5 167.74-31.35 169.66-29.1 171.59-26.85 172.64-23.63 173.69-20.4 173.69-16.3L173.69-16.3Q173.69-12.45 172.71-9.33 171.74-6.2 169.86-3.98 167.99-1.75 165.26-0.55 162.54 0.65 158.94 0.65ZM158.99-3.3L158.99-3.3Q162.19-3.3 164.41-4.83 166.64-6.35 167.81-9.22 168.99-12.1 168.99-16.2L168.99-16.2Q168.99-20.45 167.79-23.43 166.59-26.4 164.34-28 162.09-29.6 158.89-29.6L158.89-29.6Q155.84-29.6 153.59-28.05 151.34-26.5 150.14-23.55 148.94-20.6 148.94-16.3L148.94-16.3Q148.94-13.2 149.61-10.78 150.29-8.35 151.56-6.68 152.84-5 154.71-4.15 156.59-3.3 158.99-3.3ZM185.69 0L181.09 0 181.09-33 185.69-33 185.69-17.25Q188.44-18.2 191.06-19.83 193.69-21.45 195.89-23.53 198.09-25.6 199.74-28.03 201.39-30.45 202.24-33L202.24-33 207.34-33Q206.34-30.1 204.71-27.55 203.09-25 201.01-22.9 198.94-20.8 196.71-19.25 194.49-17.7 192.29-16.75L192.29-16.75 192.29-16.1Q194.74-16.1 196.71-15.45 198.69-14.8 200.31-13.55 201.94-12.3 203.21-10.35 204.49-8.4 205.54-5.75L205.54-5.75 207.64 0 202.49 0 201.14-4.4Q199.99-7.55 198.46-9.58 196.94-11.6 194.61-12.63 192.29-13.65 188.64-13.65L188.64-13.65 185.69-13.65 185.69 0ZM225.43 0.65L225.43 0.65Q222.13 0.65 219.66-0.05 217.18-0.75 215.51-2.13 213.83-3.5 213.03-5.5 212.23-7.5 212.33-10.15L212.33-10.15 216.48-11.05Q216.28-8.45 217.33-6.7 218.38-4.95 220.53-4.08 222.68-3.2 225.58-3.2L225.58-3.2Q228.38-3.2 230.33-3.9 232.28-4.6 233.26-5.85 234.23-7.1 234.23-8.7L234.23-8.7Q234.23-10.5 233.08-11.55 231.93-12.6 230.01-13.18 228.08-13.75 225.73-14.25L225.73-14.25Q223.43-14.75 221.13-15.4 218.83-16.05 217.01-17.07 215.18-18.1 214.06-19.78 212.93-21.45 212.93-24.05L212.93-24.05Q212.93-27 214.41-29.15 215.88-31.3 218.58-32.48 221.28-33.65 224.93-33.65L224.93-33.65Q228.53-33.65 231.36-32.5 234.18-31.35 235.83-29.13 237.48-26.9 237.58-23.65L237.58-23.65 233.28-22.6Q233.28-24.4 232.66-25.78 232.03-27.15 230.93-28.03 229.83-28.9 228.28-29.38 226.73-29.85 224.88-29.85L224.88-29.85Q222.63-29.85 220.93-29.15 219.23-28.45 218.28-27.25 217.33-26.05 217.33-24.4L217.33-24.4Q217.33-22.45 218.71-21.33 220.08-20.2 222.28-19.55 224.48-18.9 226.98-18.35L226.98-18.35Q229.13-17.9 231.21-17.28 233.28-16.65 234.98-15.63 236.68-14.6 237.68-12.95 238.68-11.3 238.68-8.75L238.68-8.75Q238.68-5.9 237.21-3.8 235.73-1.7 232.78-0.53 229.83 0.65 225.43 0.65Z" opacity="1" transform="matrix(1,0,0,1,0,0)" fill="#ffffff" class="wordmark-text-0" data-fill-palette-color="primary" id="text-0"></path></svg></g></svg></g></svg></g></svg></g><g><svg viewBox="0 0 167.66140523878883 149.5753533291219" height="149.5753533291219" width="167.66140523878883"><g><svg xmlns="http://www.w3.org/2000/svg" xmlns:xlink="http://www.w3.org/1999/xlink" version="1.1" x="0" y="0" viewBox="8.387 13.005 84.192 75.11" enable-background="new 0 0 100 100" xml:space="preserve" height="149.5753533291219" width="167.66140523878883" class="icon-icon-0" data-fill-palette-color="accent" id="icon-0"><g fill="#13472e" data-fill-palette-color="accent"><path d="M49.569 22.967C39.594 17.276 28.892 13.842 18.524 13.005V71.356C28.891 72.17 39.574 75.51 49.569 81.055z" fill="#ffffff" data-fill-palette-color="accent"></path><path d="M82.444 13.005C72.076 13.843 61.373 17.276 51.399 22.967V81.054C61.392 75.509 72.078 72.169 82.444 71.355z" fill="#ffffff" data-fill-palette-color="accent"></path><path d="M49.229 84.073C50.043 84.351 50.9 84.363 51.714 84.085 63.371 79.042 75.579 76.772 87.512 77.295V19.524A67 67 0 0 0 84.272 19.469V73.063L83.42 73.119C72.748 73.816 61.688 77.296 51.399 83.167A2.83 2.83 0 0 1 49.569 83.167C39.279 77.296 28.22 73.816 17.548 73.119L16.694 73.063V19.469A66 66 0 0 0 13.455 19.524V77.295C25.387 76.771 37.569 79.03 49.229 84.073" fill="#ffffff" data-fill-palette-color="accent"></path><path d="M92.579 26.009C91.509 25.86 90.422 25.781 89.342 25.674V79.224L88.374 79.168C76.179 78.469 63.314 80.945 51.399 86.233L50.483 86.614 49.568 86.233C37.651 80.945 24.787 78.468 12.592 79.168L11.625 79.224V25.674C10.544 25.782 9.457 25.861 8.387 26.009V84.716A5 5 0 0 1 9.431 85.464C22.382 83.714 35.824 83.928 48.611 88.115A19 19 0 0 1 50.484 88.02C51.145 88.02 51.769 88.057 52.356 88.115 65.141 83.927 78.585 83.714 91.535 85.464 91.535 85.464 92.009 85.002 92.579 84.716z" fill="#ffffff" data-fill-palette-color="accent"></path></g></svg></g></svg></g></svg></g><defs></defs></svg><rect width="395.52" height="102.58921346349143" fill="none" stroke="none" visibility="hidden"></rect></g></svg></g></svg>